<svg width="24" height="24" viewBox="0 0 24 24" fill="none" xmlns="http://www.w3.org/2000/svg">
<g clip-path="url(#clip0_59_256)">
<path d="M8.55614 3.76447C8.91142 3.76447 9.23877 3.95745 9.41125 4.26859L10.6076 6.42703C10.7642 6.70964 10.7716 7.05147 10.6273 7.3406L9.47473 9.64935C9.47473 9.64935 9.80873 11.3692 11.2066 12.7693C12.6044 14.1693 14.3158 14.498 14.3158 14.498L16.6206 13.3439C16.9094 13.1992 17.251 13.2067 17.5332 13.3639L19.6944 14.5673C20.0048 14.7401 20.1972 15.0678 20.1972 15.4235V17.9084C20.1972 19.1739 19.0236 20.0879 17.8265 19.6833C15.3676 18.8524 11.5509 17.2702 9.13182 14.8473C6.71271 12.4243 5.13302 8.60163 4.30337 6.13898C3.89943 4.93991 4.81199 3.76447 6.07546 3.76447H8.55614Z" stroke="#AF9D79" stroke-width="1.95918" stroke-linejoin="round"/>
</g>
<defs>
<clipPath id="clip0_59_256">
<rect width="23.9623" height="24" fill="white"/>
</clipPath>
</defs>
</svg>
