<svg width="24" height="24" viewBox="0 0 24 24" fill="none" xmlns="http://www.w3.org/2000/svg">
<g clip-path="url(#clip0_4_26)">
<path d="M8.55609 3.7645C8.91136 3.7645 9.23872 3.95749 9.4112 4.26862L10.6076 6.42706C10.7642 6.70967 10.7716 7.0515 10.6272 7.34063L9.47467 9.64938C9.47467 9.64938 9.80868 11.3692 11.2065 12.7693C12.6044 14.1693 14.3158 14.4981 14.3158 14.4981L16.6205 13.3439C16.9094 13.1992 17.2509 13.2067 17.5332 13.3639L19.6943 14.5673C20.0047 14.7402 20.1972 15.0678 20.1972 15.4235V17.9085C20.1972 19.174 19.0235 20.088 17.8264 19.6833C15.3676 18.8524 11.5509 17.2703 9.13177 14.8473C6.71266 12.4244 5.13297 8.60166 4.30332 6.13901C3.89937 4.93994 4.81194 3.7645 6.07541 3.7645H8.55609Z" stroke="#0A2037" stroke-width="1.95918" stroke-linejoin="round"/>
</g>
<defs>
<clipPath id="clip0_4_26">
<rect width="23.9623" height="24" fill="white"/>
</clipPath>
</defs>
</svg>
