<svg width="30" height="31" viewBox="0 0 30 31" fill="none" xmlns="http://www.w3.org/2000/svg">
<g clip-path="url(#clip0_78_30)">
<path d="M15 27.772C8.09625 27.772 2.5 22.1757 2.5 15.272C2.5 8.36822 8.09625 2.77197 15 2.77197C21.9037 2.77197 27.5 8.36822 27.5 15.272C27.5 22.1757 21.9037 27.772 15 27.772ZM11.1125 16.7345L11.1287 16.7257L12.2162 20.3132C12.3562 20.702 12.5487 20.772 12.7825 20.7395C13.0175 20.7082 13.1412 20.582 13.295 20.4345L14.78 18.9995L17.9675 21.3595C18.55 21.6807 18.9688 21.5145 19.1138 20.8195L21.185 11.042C21.4137 10.132 21.0138 9.76697 20.3075 10.057L8.14125 14.757C7.31125 15.0895 7.31625 15.5545 7.99125 15.7607L11.1125 16.7357V16.7345Z" fill="#AF9D79"/>
</g>
<defs>
<clipPath id="clip0_78_30">
<rect width="30" height="30" fill="white" transform="translate(0 0.271973)"/>
</clipPath>
</defs>
</svg>
