<svg width="30" height="30" viewBox="0 0 30 30" fill="none" xmlns="http://www.w3.org/2000/svg">
<g clip-path="url(#clip0_78_34)">
<path d="M2.00502 27L3.69502 20.79C2.58144 18.8811 1.99639 16.71 2.00002 14.5C2.00002 7.59625 7.59627 2 14.5 2C21.4038 2 27 7.59625 27 14.5C27 21.4038 21.4038 27 14.5 27C12.291 27.0036 10.1208 26.419 8.21252 25.3063L2.00502 27ZM9.98877 8.635C9.82734 8.64502 9.66961 8.68754 9.52502 8.76C9.38942 8.83679 9.26564 8.93278 9.15752 9.045C9.00752 9.18625 8.92252 9.30875 8.83127 9.4275C8.36928 10.0287 8.12078 10.7668 8.12502 11.525C8.12752 12.1375 8.28752 12.7338 8.53752 13.2913C9.04877 14.4188 9.89002 15.6125 11.0013 16.7188C11.2688 16.985 11.53 17.2525 11.8113 17.5013C13.1905 18.7156 14.8341 19.5913 16.6113 20.0588L17.3225 20.1675C17.5538 20.18 17.785 20.1625 18.0175 20.1513C18.3816 20.1325 18.737 20.0339 19.0588 19.8625C19.2663 19.7525 19.3638 19.6975 19.5375 19.5875C19.5375 19.5875 19.5913 19.5525 19.6938 19.475C19.8625 19.35 19.9663 19.2613 20.1063 19.115C20.21 19.0075 20.3 18.8813 20.3688 18.7375C20.4663 18.5338 20.5638 18.145 20.6038 17.8213C20.6338 17.5738 20.625 17.4388 20.6213 17.355C20.6163 17.2213 20.505 17.0825 20.3838 17.0238L19.6563 16.6975C19.6563 16.6975 18.5688 16.2238 17.905 15.9213C17.835 15.8907 17.76 15.8734 17.6838 15.87C17.5982 15.8612 17.5118 15.8708 17.4303 15.8982C17.3488 15.9256 17.2741 15.9701 17.2113 16.0288V16.0263C17.205 16.0263 17.1213 16.0975 16.2175 17.1925C16.1656 17.2622 16.0942 17.3149 16.0123 17.3438C15.9303 17.3728 15.8417 17.3767 15.7575 17.355C15.6761 17.3332 15.5963 17.3057 15.5188 17.2725C15.3638 17.2075 15.31 17.1825 15.2038 17.1363L15.1975 17.1338C14.4824 16.8215 13.8203 16.3998 13.235 15.8838C13.0775 15.7463 12.9313 15.5963 12.7813 15.4513C12.2895 14.9803 11.8609 14.4475 11.5063 13.8663L11.4325 13.7475C11.3795 13.6677 11.3367 13.5816 11.305 13.4913C11.2575 13.3075 11.3813 13.16 11.3813 13.16C11.3813 13.16 11.685 12.8275 11.8263 12.6475C11.9439 12.4979 12.0536 12.3423 12.155 12.1813C12.3025 11.9438 12.3488 11.7 12.2713 11.5113C11.9213 10.6563 11.5588 9.805 11.1863 8.96C11.1125 8.7925 10.8938 8.6725 10.695 8.64875C10.6275 8.64125 10.56 8.63375 10.4925 8.62875C10.3246 8.62041 10.1564 8.62208 9.98877 8.63375V8.635Z" fill="#AF9D79"/>
</g>
<defs>
<clipPath id="clip0_78_34">
<rect width="30" height="30" fill="white"/>
</clipPath>
</defs>
</svg>
