<svg width="24" height="24" viewBox="0 0 24 24" fill="none" xmlns="http://www.w3.org/2000/svg">
<g clip-path="url(#clip0_193_49)">
<path d="M1.60399 21.6L2.95599 16.632C2.06513 15.1049 1.59708 13.368 1.59999 11.6C1.59999 6.07701 6.07699 1.60001 11.6 1.60001C17.123 1.60001 21.6 6.07701 21.6 11.6C21.6 17.123 17.123 21.6 11.6 21.6C9.83277 21.6029 8.09665 21.1352 6.56999 20.245L1.60399 21.6ZM7.99099 6.90801C7.86185 6.91603 7.73566 6.95004 7.61999 7.00801C7.51151 7.06944 7.41249 7.14623 7.32599 7.23601C7.20599 7.34901 7.13799 7.44701 7.06499 7.54201C6.6954 8.023 6.4966 8.61342 6.49999 9.22001C6.50199 9.71001 6.62999 10.187 6.82999 10.633C7.23899 11.535 7.91199 12.49 8.80099 13.375C9.01499 13.588 9.22399 13.802 9.44899 14.001C10.5524 14.9725 11.8672 15.673 13.289 16.047L13.858 16.134C14.043 16.144 14.228 16.13 14.414 16.121C14.7052 16.106 14.9896 16.0271 15.247 15.89C15.413 15.802 15.491 15.758 15.63 15.67C15.63 15.67 15.673 15.642 15.755 15.58C15.89 15.48 15.973 15.409 16.085 15.292C16.168 15.206 16.24 15.105 16.295 14.99C16.373 14.827 16.451 14.516 16.483 14.257C16.507 14.059 16.5 13.951 16.497 13.884C16.493 13.777 16.404 13.666 16.307 13.619L15.725 13.358C15.725 13.358 14.855 12.979 14.324 12.737C14.268 12.7126 14.208 12.6987 14.147 12.696C14.0786 12.689 14.0094 12.6967 13.9442 12.7186C13.879 12.7405 13.8193 12.7761 13.769 12.823V12.821C13.764 12.821 13.697 12.878 12.974 13.754C12.9325 13.8098 12.8753 13.8519 12.8098 13.8751C12.7443 13.8982 12.6733 13.9013 12.606 13.884C12.5408 13.8666 12.477 13.8445 12.415 13.818C12.291 13.766 12.248 13.746 12.163 13.709L12.158 13.707C11.5859 13.4572 11.0562 13.1199 10.588 12.707C10.462 12.597 10.345 12.477 10.225 12.361C9.83157 11.9842 9.4887 11.558 9.20499 11.093L9.14599 10.998C9.10361 10.9342 9.06935 10.8653 9.04399 10.793C9.00599 10.646 9.10499 10.528 9.10499 10.528C9.10499 10.528 9.34799 10.262 9.46099 10.118C9.55508 9.99833 9.64286 9.87383 9.72399 9.74501C9.84199 9.55501 9.87899 9.36001 9.81699 9.20901C9.53699 8.52501 9.24699 7.84401 8.94899 7.16801C8.88999 7.03401 8.71499 6.93801 8.55599 6.91901C8.50199 6.91301 8.44799 6.90701 8.39399 6.90301C8.2597 6.89633 8.12512 6.89767 7.99099 6.90701V6.90801Z" fill="#0A2037"/>
</g>
<defs>
<clipPath id="clip0_193_49">
<rect width="24" height="24" fill="white"/>
</clipPath>
</defs>
</svg>
